<!DOCTYPE svg PUBLIC "-//W3C//DTD SVG 1.1//EN" "http://www.w3.org/Graphics/SVG/1.1/DTD/svg11.dtd">
                <svg xmlns="http://www.w3.org/2000/svg" xmlns:xlink="http://www.w3.org/1999/xlink" 
                width="466" height="823">
                
            <g>
                <rect x="50" y="80"
            width="237.2" height="30"
            style="fill:#a5d6a7; stroke:#444; stroke-width:1" />
                    
                <line x1="60" y1="80" x2="60" y2="110"
                style="fill:#a5d6a7; stroke:#444; stroke-width:1" />
                <line x1="277.2" y1="80" x2="277.2" y2="110"
                style="fill:#a5d6a7; stroke:#444; stroke-width:1" />
             
                <title>function bubbleSort(arr)</title>
            <text x="75" y="100"
                font-family="monospace" font-size="13" fill="#222">
                <tspan x="75" y="100">function bubbleSort(arr)</tspan>
            </text>
                
            </g>
                <g>
                   <rect x="87" y="128.5"
            width="201.6" height="30"
            rx="3" ry="3"
            style="fill:#90caf9; stroke:#444; stroke-width:1" />
                   <title>var n = arr.length - 1</title>
            <text x="102" y="148.5"
                font-family="monospace" font-size="13" fill="#222">
                <tspan x="102" y="148.5">var n = arr.length - 1</tspan>
            </text>
                   
                   
                </g><g>

            <rect x="117" y="212"
            width="99" height="30"
            rx="3" ry="3"
            style="fill:#b39ddb; stroke:#444; stroke-width:1" />
            <polygon points="87,227 117,197 147,227 117,257"
            style="fill:#b39ddb; stroke:#444; stroke-width:1" />
                
            <title>swapp</title>
            <text x="162" y="232"
                font-family="monospace" font-size="13" fill="#222">
                <tspan x="162" y="232">swapp</tspan>
            </text>
            
            <text x="97.5" y="232"
        font-family="monospace" font-size="13" fill="#222">while</text>
        </g>
                <g>
                   <rect x="137" y="267"
            width="131.39999999999998" height="30"
            rx="3" ry="3"
            style="fill:#90caf9; stroke:#444; stroke-width:1" />
                   <title>swapp = false</title>
            <text x="152" y="287"
                font-family="monospace" font-size="13" fill="#222">
                <tspan x="152" y="287">swapp = false</tspan>
            </text>
                   
                   
                </g><g>

            <rect x="167" y="350.5"
            width="99" height="30"
            rx="3" ry="3"
            style="fill:#b39ddb; stroke:#444; stroke-width:1" />
            <polygon points="137,365.5 167,335.5 197,365.5 167,395.5"
            style="fill:#b39ddb; stroke:#444; stroke-width:1" />
                
            <title>i &lt; n</title>
            <text x="212" y="370.5"
                font-family="monospace" font-size="13" fill="#222">
                <tspan x="212" y="370.5">i &lt; n</tspan>
            </text>
            
            <text x="155.3" y="370.5"
        font-family="monospace" font-size="13" fill="#222">for</text>
        </g>
                <g>
                   <rect x="187" y="405.5"
            width="53.4" height="30"
            rx="3" ry="3"
            style="fill:#90caf9; stroke:#444; stroke-width:1" />
                   <title>i++</title>
            <text x="202" y="425.5"
                font-family="monospace" font-size="13" fill="#222">
                <tspan x="202" y="425.5">i++</tspan>
            </text>
                   
                   
                </g><g>
            <rect x="217" y="469"
            width="223.79999999999998" height="30"
            rx="3" ry="3"
            style="fill:#ce93d8; stroke:#444; stroke-width:1" />                
            <polygon points="187,484 217,454 247,484 217,514"
            style="fill:#ce93d8; stroke:#444; stroke-width:1" />
            <title>(arr[i] &lt; arr[i + 1])</title>
            <text x="262" y="489"
                font-family="monospace" font-size="13" fill="#222">
                <tspan x="262" y="489">(arr[i] &lt; arr[i + 1])</tspan>
            </text>
            
            <text x="209.2" y="489"
        font-family="monospace" font-size="13" fill="#222">if</text> <text x="224.8" y="515.95"
        font-family="monospace" font-size="13" fill="#222">+</text> 
        </g>
                <g>
                   <rect x="237" y="524"
            width="162.6" height="30"
            rx="3" ry="3"
            style="fill:#90caf9; stroke:#444; stroke-width:1" />
                   <title>var temp = arr[i]</title>
            <text x="252" y="544"
                font-family="monospace" font-size="13" fill="#222">
                <tspan x="252" y="544">var temp = arr[i]</tspan>
            </text>
                   
                   
                </g>
                <g>
                   <rect x="237" y="572.5"
            width="178.2" height="30"
            rx="3" ry="3"
            style="fill:#90caf9; stroke:#444; stroke-width:1" />
                   <title>arr[i] = arr[i + 1]</title>
            <text x="252" y="592.5"
                font-family="monospace" font-size="13" fill="#222">
                <tspan x="252" y="592.5">arr[i] = arr[i + 1]</tspan>
            </text>
                   
                   
                </g>
                <g>
                   <rect x="237" y="621"
            width="162.6" height="30"
            rx="3" ry="3"
            style="fill:#90caf9; stroke:#444; stroke-width:1" />
                   <title>arr[i + 1] = temp</title>
            <text x="252" y="641"
                font-family="monospace" font-size="13" fill="#222">
                <tspan x="252" y="641">arr[i + 1] = temp</tspan>
            </text>
                   
                   
                </g>
                <g>
                   <rect x="237" y="669.5"
            width="123.6" height="30"
            rx="3" ry="3"
            style="fill:#90caf9; stroke:#444; stroke-width:1" />
                   <title>swapp = true</title>
            <text x="252" y="689.5"
                font-family="monospace" font-size="13" fill="#222">
                <tspan x="252" y="689.5">swapp = true</tspan>
            </text>
                   
                   
                </g>
                <g>
                   <rect x="137" y="719.5"
            width="53.4" height="30"
            rx="3" ry="3"
            style="fill:#90caf9; stroke:#444; stroke-width:1" />
                   <title>n--</title>
            <text x="152" y="739.5"
                font-family="monospace" font-size="13" fill="#222">
                <tspan x="152" y="739.5">n--</tspan>
            </text>
                   
                   
                </g>
            <g>
                <rect x="87" y="768"
            width="108" height="30"
            rx="3" ry="3"
            style="fill:#90caf9; stroke:#444; stroke-width:1" />
                
                <line x1="195" y1="778" x2="200" y2="778"
                style="fill:#a5d6a7; stroke:#444; stroke-width:1" />
                
                <line x1="195" y1="788" x2="200" y2="788"
                style="fill:#a5d6a7; stroke:#444; stroke-width:1" />

                <path d="M200, 772 L216, 783 L200, 794 Z" 
        fill="#a5d6a7" stroke="#444" stroke-width="1" />
                             
                <title>return arr</title>
            <text x="102" y="788"
                font-family="monospace" font-size="13" fill="#222">
                <tspan x="102" y="788">return arr</tspan>
            </text>
                
            </g>
            <g>
               <rect x="25" y="13.75"
            width="216.6" height="24"
            style="fill:#fff59d; stroke:#444; stroke-width:1" />
               <circle cx="25" cy="25" r="15"
        style="fill:#fff59d; stroke:#444; stroke-width:1" />
               <title>Program: source module</title>
            <text x="55" y="30"
                font-family="monospace" font-size="13" fill="#222">
                <tspan x="55" y="30">Program: source module</tspan>
            </text>
            </g>
            <g>
               <path d="M25, 40 L25 91 Q25 95
                29 95
                L42 95 "
        style="fill:none; stroke:#444; stroke-width:1" />
               <path d="M42, 92 L50, 95 L42, 98 Z" 
        fill="#333" />
            </g>
            <g>
               <path d="M68.5, 110 L68.5 139.5 Q68.5 143.5
                72.5 143.5
                L79 143.5 "
        style="fill:none; stroke:#444; stroke-width:1" />
               <path d="M79, 140.5 L87, 143.5 L79, 146.5 Z" 
        fill="#333" />
            </g>
            <g>
               <path d="M68.5, 110 L68.5 223 Q68.5 227
                72.5 227
                L79 227 "
        style="fill:none; stroke:#444; stroke-width:1" />
               <path d="M79, 224 L87, 227 L79, 230 Z" 
        fill="#333" />
            </g>
            <g>
               <path d="M117, 257 L117 278 Q117 282
                121 282
                L129 282 "
        style="fill:none; stroke:#444; stroke-width:1" />
               <path d="M129, 279 L137, 282 L129, 285 Z" 
        fill="#333" />
            </g>
            <g>
               <path d="M117, 257 L117 361.5 Q117 365.5
                121 365.5
                L129 365.5 "
        style="fill:none; stroke:#444; stroke-width:1" />
               <path d="M129, 362.5 L137, 365.5 L129, 368.5 Z" 
        fill="#333" />
            </g>
            <g>
               <path d="M167, 395.5 L167 416.5 Q167 420.5
                171 420.5
                L179 420.5 "
        style="fill:none; stroke:#444; stroke-width:1" />
               <path d="M179, 417.5 L187, 420.5 L179, 423.5 Z" 
        fill="#333" />
            </g>
            <g>
               <path d="M167, 395.5 L167 480 Q167 484
                171 484
                L179 484 "
        style="fill:none; stroke:#444; stroke-width:1" />
               <path d="M179, 481 L187, 484 L179, 487 Z" 
        fill="#333" />
            </g>
            <g>
               <path d="M217, 514 L217 535 Q217 539
                221 539
                L229 539 "
        style="fill:none; stroke:#444; stroke-width:1" />
               <path d="M229, 536 L237, 539 L229, 542 Z" 
        fill="#333" />
            </g>
            <g>
               <path d="M217, 514 L217 583.5 Q217 587.5
                221 587.5
                L229 587.5 "
        style="fill:none; stroke:#444; stroke-width:1" />
               <path d="M229, 584.5 L237, 587.5 L229, 590.5 Z" 
        fill="#333" />
            </g>
            <g>
               <path d="M217, 514 L217 632 Q217 636
                221 636
                L229 636 "
        style="fill:none; stroke:#444; stroke-width:1" />
               <path d="M229, 633 L237, 636 L229, 639 Z" 
        fill="#333" />
            </g>
            <g>
               <path d="M217, 514 L217 680.5 Q217 684.5
                221 684.5
                L229 684.5 "
        style="fill:none; stroke:#444; stroke-width:1" />
               <path d="M229, 681.5 L237, 684.5 L229, 687.5 Z" 
        fill="#333" />
            </g>
            <g>
               <path d="M360.6, 684.5 L456.79999999999995 684.5  Q460.79999999999995 684.5
                460.79999999999995 680.5
                L460.79999999999995 323.5 Q460.79999999999995 315.5
                456.79999999999995 315.5
                L175 315.5  Q167 315.5
                167 319.5
                L167 327.5"
        style="fill:none; stroke:#444; stroke-width:1" />
               <path d="M164, 327.5 L167, 335.5 L170, 327.5 Z" 
        fill="#333" />
            </g>
            <g>
               <path d="M117, 257 L117 730.5 Q117 734.5
                121 734.5
                L129 734.5 "
        style="fill:none; stroke:#444; stroke-width:1" />
               <path d="M129, 731.5 L137, 734.5 L129, 737.5 Z" 
        fill="#333" />
            </g>
            <g>
               <path d="M190.4, 734.5 L456.79999999999995 734.5  Q460.79999999999995 734.5
                460.79999999999995 730.5
                L460.79999999999995 185 Q460.79999999999995 177
                456.79999999999995 177
                L125 177  Q117 177
                117 181
                L117 189"
        style="fill:none; stroke:#444; stroke-width:1" />
               <path d="M114, 189 L117, 197 L120, 189 Z" 
        fill="#333" />
            </g>
            <g>
               <path d="M68.5, 110 L68.5 779 Q68.5 783
                72.5 783
                L79 783 "
        style="fill:none; stroke:#444; stroke-width:1" />
               <path d="M79, 780 L87, 783 L79, 786 Z" 
        fill="#333" />
            </g>
            </svg>