<!DOCTYPE svg PUBLIC "-//W3C//DTD SVG 1.1//EN" "http://www.w3.org/Graphics/SVG/1.1/DTD/svg11.dtd">
                <svg xmlns="http://www.w3.org/2000/svg" xmlns:xlink="http://www.w3.org/1999/xlink" 
                width="424" height="655">
                
            <g>
                <rect x="50" y="80"
            width="260.6" height="30"
            style="fill:#a5d6a7; stroke:#444; stroke-width:1" />
                    
                <line x1="60" y1="80" x2="60" y2="110"
                style="fill:#a5d6a7; stroke:#444; stroke-width:1" />
                <line x1="300.6" y1="80" x2="300.6" y2="110"
                style="fill:#a5d6a7; stroke:#444; stroke-width:1" />
             
                <title>function insertionSort(arr)</title>
            <text x="75" y="100"
                font-family="monospace" font-size="13" fill="#222">
                <tspan x="75" y="100">function insertionSort(arr)</tspan>
            </text>
                
            </g><g>

            <rect x="117" y="163.5"
            width="169.2" height="30"
            rx="3" ry="3"
            style="fill:#b39ddb; stroke:#444; stroke-width:1" />
            <polygon points="87,178.5 117,148.5 147,178.5 117,208.5"
            style="fill:#b39ddb; stroke:#444; stroke-width:1" />
                
            <title>i &lt; arr.length</title>
            <text x="162" y="183.5"
                font-family="monospace" font-size="13" fill="#222">
                <tspan x="162" y="183.5">i &lt; arr.length</tspan>
            </text>
            
            <text x="105.3" y="183.5"
        font-family="monospace" font-size="13" fill="#222">for</text>
        </g>
                <g>
                   <rect x="137" y="218.5"
            width="53.4" height="30"
            rx="3" ry="3"
            style="fill:#90caf9; stroke:#444; stroke-width:1" />
                   <title>i++</title>
            <text x="152" y="238.5"
                font-family="monospace" font-size="13" fill="#222">
                <tspan x="152" y="238.5">i++</tspan>
            </text>
                   
                   
                </g>
                <g>
                   <rect x="137" y="267"
            width="154.8" height="30"
            rx="3" ry="3"
            style="fill:#90caf9; stroke:#444; stroke-width:1" />
                   <title>var key = arr[i]</title>
            <text x="152" y="287"
                font-family="monospace" font-size="13" fill="#222">
                <tspan x="152" y="287">var key = arr[i]</tspan>
            </text>
                   
                   
                </g>
                <g>
                   <rect x="137" y="315.5"
            width="131.39999999999998" height="30"
            rx="3" ry="3"
            style="fill:#90caf9; stroke:#444; stroke-width:1" />
                   <title>var y = i - 1</title>
            <text x="152" y="335.5"
                font-family="monospace" font-size="13" fill="#222">
                <tspan x="152" y="335.5">var y = i - 1</tspan>
            </text>
                   
                   
                </g><g>

            <rect x="167" y="399"
            width="231.60000000000002" height="30"
            rx="3" ry="3"
            style="fill:#b39ddb; stroke:#444; stroke-width:1" />
            <polygon points="137,414 167,384 197,414 167,444"
            style="fill:#b39ddb; stroke:#444; stroke-width:1" />
                
            <title>y &gt;= 0 &amp;&amp; arr[y] &gt; key</title>
            <text x="212" y="419"
                font-family="monospace" font-size="13" fill="#222">
                <tspan x="212" y="419">y &gt;= 0 &amp;&amp; arr[y] &gt; key</tspan>
            </text>
            
            <text x="147.5" y="419"
        font-family="monospace" font-size="13" fill="#222">while</text>
        </g>
                <g>
                   <rect x="187" y="454"
            width="178.2" height="30"
            rx="3" ry="3"
            style="fill:#90caf9; stroke:#444; stroke-width:1" />
                   <title>arr[y + 1] = arr[y]</title>
            <text x="202" y="474"
                font-family="monospace" font-size="13" fill="#222">
                <tspan x="202" y="474">arr[y + 1] = arr[y]</tspan>
            </text>
                   
                   
                </g>
                <g>
                   <rect x="187" y="502.5"
            width="100.2" height="30"
            rx="3" ry="3"
            style="fill:#90caf9; stroke:#444; stroke-width:1" />
                   <title>y = y - 1</title>
            <text x="202" y="522.5"
                font-family="monospace" font-size="13" fill="#222">
                <tspan x="202" y="522.5">y = y - 1</tspan>
            </text>
                   
                   
                </g>
                <g>
                   <rect x="137" y="551"
            width="154.8" height="30"
            rx="3" ry="3"
            style="fill:#90caf9; stroke:#444; stroke-width:1" />
                   <title>arr[y + 1] = key</title>
            <text x="152" y="571"
                font-family="monospace" font-size="13" fill="#222">
                <tspan x="152" y="571">arr[y + 1] = key</tspan>
            </text>
                   
                   
                </g>
            <g>
                <rect x="87" y="599.5"
            width="108" height="30"
            rx="3" ry="3"
            style="fill:#90caf9; stroke:#444; stroke-width:1" />
                
                <line x1="195" y1="609.5" x2="200" y2="609.5"
                style="fill:#a5d6a7; stroke:#444; stroke-width:1" />
                
                <line x1="195" y1="619.5" x2="200" y2="619.5"
                style="fill:#a5d6a7; stroke:#444; stroke-width:1" />

                <path d="M200, 603.5 L216, 614.5 L200, 625.5 Z" 
        fill="#a5d6a7" stroke="#444" stroke-width="1" />
                             
                <title>return arr</title>
            <text x="102" y="619.5"
                font-family="monospace" font-size="13" fill="#222">
                <tspan x="102" y="619.5">return arr</tspan>
            </text>
                
            </g>
            <g>
               <rect x="25" y="13.75"
            width="216.6" height="24"
            style="fill:#fff59d; stroke:#444; stroke-width:1" />
               <circle cx="25" cy="25" r="15"
        style="fill:#fff59d; stroke:#444; stroke-width:1" />
               <title>Program: source module</title>
            <text x="55" y="30"
                font-family="monospace" font-size="13" fill="#222">
                <tspan x="55" y="30">Program: source module</tspan>
            </text>
            </g>
            <g>
               <path d="M25, 40 L25 91 Q25 95
                29 95
                L42 95 "
        style="fill:none; stroke:#444; stroke-width:1" />
               <path d="M42, 92 L50, 95 L42, 98 Z" 
        fill="#333" />
            </g>
            <g>
               <path d="M68.5, 110 L68.5 174.5 Q68.5 178.5
                72.5 178.5
                L79 178.5 "
        style="fill:none; stroke:#444; stroke-width:1" />
               <path d="M79, 175.5 L87, 178.5 L79, 181.5 Z" 
        fill="#333" />
            </g>
            <g>
               <path d="M117, 208.5 L117 229.5 Q117 233.5
                121 233.5
                L129 233.5 "
        style="fill:none; stroke:#444; stroke-width:1" />
               <path d="M129, 230.5 L137, 233.5 L129, 236.5 Z" 
        fill="#333" />
            </g>
            <g>
               <path d="M117, 208.5 L117 278 Q117 282
                121 282
                L129 282 "
        style="fill:none; stroke:#444; stroke-width:1" />
               <path d="M129, 279 L137, 282 L129, 285 Z" 
        fill="#333" />
            </g>
            <g>
               <path d="M117, 208.5 L117 326.5 Q117 330.5
                121 330.5
                L129 330.5 "
        style="fill:none; stroke:#444; stroke-width:1" />
               <path d="M129, 327.5 L137, 330.5 L129, 333.5 Z" 
        fill="#333" />
            </g>
            <g>
               <path d="M117, 208.5 L117 410 Q117 414
                121 414
                L129 414 "
        style="fill:none; stroke:#444; stroke-width:1" />
               <path d="M129, 411 L137, 414 L129, 417 Z" 
        fill="#333" />
            </g>
            <g>
               <path d="M167, 444 L167 465 Q167 469
                171 469
                L179 469 "
        style="fill:none; stroke:#444; stroke-width:1" />
               <path d="M179, 466 L187, 469 L179, 472 Z" 
        fill="#333" />
            </g>
            <g>
               <path d="M167, 444 L167 513.5 Q167 517.5
                171 517.5
                L179 517.5 "
        style="fill:none; stroke:#444; stroke-width:1" />
               <path d="M179, 514.5 L187, 517.5 L179, 520.5 Z" 
        fill="#333" />
            </g>
            <g>
               <path d="M287.2, 517.5 L414.6 517.5  Q418.6 517.5
                418.6 513.5
                L418.6 372 Q418.6 364
                414.6 364
                L175 364  Q167 364
                167 368
                L167 376"
        style="fill:none; stroke:#444; stroke-width:1" />
               <path d="M164, 376 L167, 384 L170, 376 Z" 
        fill="#333" />
            </g>
            <g>
               <path d="M117, 208.5 L117 562 Q117 566
                121 566
                L129 566 "
        style="fill:none; stroke:#444; stroke-width:1" />
               <path d="M129, 563 L137, 566 L129, 569 Z" 
        fill="#333" />
            </g>
            <g>
               <path d="M291.8, 566 L414.6 566  Q418.6 566
                418.6 562
                L418.6 136.5 Q418.6 128.5
                414.6 128.5
                L125 128.5  Q117 128.5
                117 132.5
                L117 140.5"
        style="fill:none; stroke:#444; stroke-width:1" />
               <path d="M114, 140.5 L117, 148.5 L120, 140.5 Z" 
        fill="#333" />
            </g>
            <g>
               <path d="M68.5, 110 L68.5 610.5 Q68.5 614.5
                72.5 614.5
                L79 614.5 "
        style="fill:none; stroke:#444; stroke-width:1" />
               <path d="M79, 611.5 L87, 614.5 L79, 617.5 Z" 
        fill="#333" />
            </g>
            </svg>