<!DOCTYPE svg PUBLIC "-//W3C//DTD SVG 1.1//EN" "http://www.w3.org/Graphics/SVG/1.1/DTD/svg11.dtd">
                <svg xmlns="http://www.w3.org/2000/svg" xmlns:xlink="http://www.w3.org/1999/xlink" 
                width="451" height="846">
                
            <g>
                <rect x="50" y="80"
            width="260.6" height="30"
            style="fill:#a5d6a7; stroke:#444; stroke-width:1" />
                    
                <line x1="60" y1="80" x2="60" y2="110"
                style="fill:#a5d6a7; stroke:#444; stroke-width:1" />
                <line x1="300.6" y1="80" x2="300.6" y2="110"
                style="fill:#a5d6a7; stroke:#444; stroke-width:1" />
             
                <title>function selectionSort(arr)</title>
            <text x="75" y="100"
                font-family="monospace" font-size="13" fill="#222">
                <tspan x="75" y="100">function selectionSort(arr)</tspan>
            </text>
                
            </g><g>

            <rect x="117" y="163.5"
            width="169.2" height="30"
            rx="3" ry="3"
            style="fill:#b39ddb; stroke:#444; stroke-width:1" />
            <polygon points="87,178.5 117,148.5 147,178.5 117,208.5"
            style="fill:#b39ddb; stroke:#444; stroke-width:1" />
                
            <title>i &lt; arr.length</title>
            <text x="162" y="183.5"
                font-family="monospace" font-size="13" fill="#222">
                <tspan x="162" y="183.5">i &lt; arr.length</tspan>
            </text>
            
            <text x="105.3" y="183.5"
        font-family="monospace" font-size="13" fill="#222">for</text>
        </g>
                <g>
                   <rect x="137" y="218.5"
            width="53.4" height="30"
            rx="3" ry="3"
            style="fill:#90caf9; stroke:#444; stroke-width:1" />
                   <title>i++</title>
            <text x="152" y="238.5"
                font-family="monospace" font-size="13" fill="#222">
                <tspan x="152" y="238.5">i++</tspan>
            </text>
                   
                   
                </g>
                <g>
                   <rect x="137" y="267"
            width="115.8" height="30"
            rx="3" ry="3"
            style="fill:#90caf9; stroke:#444; stroke-width:1" />
                   <title>let min = i</title>
            <text x="152" y="287"
                font-family="monospace" font-size="13" fill="#222">
                <tspan x="152" y="287">let min = i</tspan>
            </text>
                   
                   
                </g><g>

            <rect x="167" y="350.5"
            width="169.2" height="30"
            rx="3" ry="3"
            style="fill:#b39ddb; stroke:#444; stroke-width:1" />
            <polygon points="137,365.5 167,335.5 197,365.5 167,395.5"
            style="fill:#b39ddb; stroke:#444; stroke-width:1" />
                
            <title>j &lt; arr.length</title>
            <text x="212" y="370.5"
                font-family="monospace" font-size="13" fill="#222">
                <tspan x="212" y="370.5">j &lt; arr.length</tspan>
            </text>
            
            <text x="155.3" y="370.5"
        font-family="monospace" font-size="13" fill="#222">for</text>
        </g>
                <g>
                   <rect x="187" y="405.5"
            width="53.4" height="30"
            rx="3" ry="3"
            style="fill:#90caf9; stroke:#444; stroke-width:1" />
                   <title>j++</title>
            <text x="202" y="425.5"
                font-family="monospace" font-size="13" fill="#222">
                <tspan x="202" y="425.5">j++</tspan>
            </text>
                   
                   
                </g><g>
            <rect x="217" y="469"
            width="208.2" height="30"
            rx="3" ry="3"
            style="fill:#ce93d8; stroke:#444; stroke-width:1" />                
            <polygon points="187,484 217,454 247,484 217,514"
            style="fill:#ce93d8; stroke:#444; stroke-width:1" />
            <title>(arr[min] &gt; arr[j])</title>
            <text x="262" y="489"
                font-family="monospace" font-size="13" fill="#222">
                <tspan x="262" y="489">(arr[min] &gt; arr[j])</tspan>
            </text>
            
            <text x="209.2" y="489"
        font-family="monospace" font-size="13" fill="#222">if</text> <text x="224.8" y="515.95"
        font-family="monospace" font-size="13" fill="#222">+</text> 
        </g>
                <g>
                   <rect x="237" y="524"
            width="84.6" height="30"
            rx="3" ry="3"
            style="fill:#90caf9; stroke:#444; stroke-width:1" />
                   <title>min = j</title>
            <text x="252" y="544"
                font-family="monospace" font-size="13" fill="#222">
                <tspan x="252" y="544">min = j</tspan>
            </text>
                   
                   
                </g><g>
            <rect x="167" y="589"
            width="145.8" height="30"
            rx="3" ry="3"
            style="fill:#ce93d8; stroke:#444; stroke-width:1" />                
            <polygon points="137,604 167,574 197,604 167,634"
            style="fill:#ce93d8; stroke:#444; stroke-width:1" />
            <title>(i !== min)</title>
            <text x="212" y="609"
                font-family="monospace" font-size="13" fill="#222">
                <tspan x="212" y="609">(i !== min)</tspan>
            </text>
            
            <text x="159.2" y="609"
        font-family="monospace" font-size="13" fill="#222">if</text> <text x="174.8" y="635.95"
        font-family="monospace" font-size="13" fill="#222">+</text> 
        </g>
                <g>
                   <rect x="187" y="644"
            width="162.6" height="30"
            rx="3" ry="3"
            style="fill:#90caf9; stroke:#444; stroke-width:1" />
                   <title>let temp = arr[i]</title>
            <text x="202" y="664"
                font-family="monospace" font-size="13" fill="#222">
                <tspan x="202" y="664">let temp = arr[i]</tspan>
            </text>
                   
                   
                </g>
                <g>
                   <rect x="187" y="692.5"
            width="162.6" height="30"
            rx="3" ry="3"
            style="fill:#90caf9; stroke:#444; stroke-width:1" />
                   <title>arr[i] = arr[min]</title>
            <text x="202" y="712.5"
                font-family="monospace" font-size="13" fill="#222">
                <tspan x="202" y="712.5">arr[i] = arr[min]</tspan>
            </text>
                   
                   
                </g>
                <g>
                   <rect x="187" y="741"
            width="147" height="30"
            rx="3" ry="3"
            style="fill:#90caf9; stroke:#444; stroke-width:1" />
                   <title>arr[min] = temp</title>
            <text x="202" y="761"
                font-family="monospace" font-size="13" fill="#222">
                <tspan x="202" y="761">arr[min] = temp</tspan>
            </text>
                   
                   
                </g>
            <g>
                <rect x="87" y="791"
            width="108" height="30"
            rx="3" ry="3"
            style="fill:#90caf9; stroke:#444; stroke-width:1" />
                
                <line x1="195" y1="801" x2="200" y2="801"
                style="fill:#a5d6a7; stroke:#444; stroke-width:1" />
                
                <line x1="195" y1="811" x2="200" y2="811"
                style="fill:#a5d6a7; stroke:#444; stroke-width:1" />

                <path d="M200, 795 L216, 806 L200, 817 Z" 
        fill="#a5d6a7" stroke="#444" stroke-width="1" />
                             
                <title>return arr</title>
            <text x="102" y="811"
                font-family="monospace" font-size="13" fill="#222">
                <tspan x="102" y="811">return arr</tspan>
            </text>
                
            </g>
            <g>
               <rect x="25" y="13.75"
            width="216.6" height="24"
            style="fill:#fff59d; stroke:#444; stroke-width:1" />
               <circle cx="25" cy="25" r="15"
        style="fill:#fff59d; stroke:#444; stroke-width:1" />
               <title>Program: source module</title>
            <text x="55" y="30"
                font-family="monospace" font-size="13" fill="#222">
                <tspan x="55" y="30">Program: source module</tspan>
            </text>
            </g>
            <g>
               <path d="M25, 40 L25 91 Q25 95
                29 95
                L42 95 "
        style="fill:none; stroke:#444; stroke-width:1" />
               <path d="M42, 92 L50, 95 L42, 98 Z" 
        fill="#333" />
            </g>
            <g>
               <path d="M68.5, 110 L68.5 174.5 Q68.5 178.5
                72.5 178.5
                L79 178.5 "
        style="fill:none; stroke:#444; stroke-width:1" />
               <path d="M79, 175.5 L87, 178.5 L79, 181.5 Z" 
        fill="#333" />
            </g>
            <g>
               <path d="M117, 208.5 L117 229.5 Q117 233.5
                121 233.5
                L129 233.5 "
        style="fill:none; stroke:#444; stroke-width:1" />
               <path d="M129, 230.5 L137, 233.5 L129, 236.5 Z" 
        fill="#333" />
            </g>
            <g>
               <path d="M117, 208.5 L117 278 Q117 282
                121 282
                L129 282 "
        style="fill:none; stroke:#444; stroke-width:1" />
               <path d="M129, 279 L137, 282 L129, 285 Z" 
        fill="#333" />
            </g>
            <g>
               <path d="M117, 208.5 L117 361.5 Q117 365.5
                121 365.5
                L129 365.5 "
        style="fill:none; stroke:#444; stroke-width:1" />
               <path d="M129, 362.5 L137, 365.5 L129, 368.5 Z" 
        fill="#333" />
            </g>
            <g>
               <path d="M167, 395.5 L167 416.5 Q167 420.5
                171 420.5
                L179 420.5 "
        style="fill:none; stroke:#444; stroke-width:1" />
               <path d="M179, 417.5 L187, 420.5 L179, 423.5 Z" 
        fill="#333" />
            </g>
            <g>
               <path d="M167, 395.5 L167 480 Q167 484
                171 484
                L179 484 "
        style="fill:none; stroke:#444; stroke-width:1" />
               <path d="M179, 481 L187, 484 L179, 487 Z" 
        fill="#333" />
            </g>
            <g>
               <path d="M217, 514 L217 535 Q217 539
                221 539
                L229 539 "
        style="fill:none; stroke:#444; stroke-width:1" />
               <path d="M229, 536 L237, 539 L229, 542 Z" 
        fill="#333" />
            </g>
            <g>
               <path d="M321.6, 539 L441.2 539  Q445.2 539
                445.2 535
                L445.2 323.5 Q445.2 315.5
                441.2 315.5
                L175 315.5  Q167 315.5
                167 319.5
                L167 327.5"
        style="fill:none; stroke:#444; stroke-width:1" />
               <path d="M164, 327.5 L167, 335.5 L170, 327.5 Z" 
        fill="#333" />
            </g>
            <g>
               <path d="M117, 208.5 L117 600 Q117 604
                121 604
                L129 604 "
        style="fill:none; stroke:#444; stroke-width:1" />
               <path d="M129, 601 L137, 604 L129, 607 Z" 
        fill="#333" />
            </g>
            <g>
               <path d="M167, 634 L167 655 Q167 659
                171 659
                L179 659 "
        style="fill:none; stroke:#444; stroke-width:1" />
               <path d="M179, 656 L187, 659 L179, 662 Z" 
        fill="#333" />
            </g>
            <g>
               <path d="M167, 634 L167 703.5 Q167 707.5
                171 707.5
                L179 707.5 "
        style="fill:none; stroke:#444; stroke-width:1" />
               <path d="M179, 704.5 L187, 707.5 L179, 710.5 Z" 
        fill="#333" />
            </g>
            <g>
               <path d="M167, 634 L167 752 Q167 756
                171 756
                L179 756 "
        style="fill:none; stroke:#444; stroke-width:1" />
               <path d="M179, 753 L187, 756 L179, 759 Z" 
        fill="#333" />
            </g>
            <g>
               <path d="M334, 756 L441.2 756  Q445.2 756
                445.2 752
                L445.2 136.5 Q445.2 128.5
                441.2 128.5
                L125 128.5  Q117 128.5
                117 132.5
                L117 140.5"
        style="fill:none; stroke:#444; stroke-width:1" />
               <path d="M114, 140.5 L117, 148.5 L120, 140.5 Z" 
        fill="#333" />
            </g>
            <g>
               <path d="M68.5, 110 L68.5 802 Q68.5 806
                72.5 806
                L79 806 "
        style="fill:none; stroke:#444; stroke-width:1" />
               <path d="M79, 803 L87, 806 L79, 809 Z" 
        fill="#333" />
            </g>
            </svg>